<svg xmlns="http://www.w3.org/2000/svg" xmlns:xlink="http://www.w3.org/1999/xlink" width="692.927" height="555.17" viewBox="0 0 692.927 555.17"><defs><style>.a,.d{fill:#cfdbde;}.b{fill:#efefef;}.c,.e{fill:#fff;}.c{stroke:#cfdbde;stroke-width:2px;}.d{opacity:0.264;}.f{fill:#6dbfbf;}.g{fill:#58307d;}.h{fill:#d3c4ba;}.i{fill:#c5c6fe;}.j{fill:#e3e4ff;}.k{fill:#0f1d5b;}.l{fill:#c9bbb1;}.m{fill:#0c0c0d;}.n{fill:#1e3340;}.o{fill:#b4d2d9;}.p{fill:#edd8ca;}.q{fill:#fbe9dc;}.r{fill:#fff4f0;}.s{fill:#ffc8a5;}.t{fill:#f8b083;}.u{fill:#f17553;}.v{fill:#2846a6;}.w{fill:url(#a);}.x{fill:#96517a;}.y{fill:#12382f;}.z{fill:#381a3f;}.aa{fill:#573a5e;}.ab{fill:#3c0849;}.ac{fill:#510b5e;}.ad{fill:#2b374d;}.ae{fill:#4c4c73;}.af{fill:#002b32;}.ag{fill:#013c66;}.ah{fill:#935e9f;}.ai{fill:#ffc400;}.aj{fill:#6e778f;}.ak{fill:#487065;}.al{fill:#0f1f42;}.am{fill:#603e6b;}.an{fill:#939ebf;}.ao{fill:#b3c7ff;}.ap{fill:#8b7fbf;}.aq{fill:#464459;}.ar{fill:#827ea6;}.as{fill:#dce4ff;}.at{fill:#d0dcff;}.au{fill:#ecf1ff;}.av{fill:#ffe203;}.aw{fill:#42004a;}.ax{fill:#12113f;}.ay{fill:#615697;}.az{fill:#494171;}.ba{fill:#1b2b80;}.bb{fill:#3e3d4d;}.bc{fill:#9b55ac;}</style><linearGradient id="a" x1="0.638" y1="-1.912" x2="0.288" y2="-0.818" gradientUnits="objectBoundingBox"><stop offset="0" stop-color="#99a5e6"/><stop offset="1" stop-color="#efefef"/></linearGradient></defs><g transform="translate(-6086.771 -1147.458)"><g transform="translate(6086.771 1164.449)"><g transform="translate(-704.101 -2898.991)"><path class="a" d="M5583.206,1594.517c1.922.673,3.068,1.2,3.068,1.2a72.167,72.167,0,0,0-9.668-10.708c-5.957-5.409-5.138-6.38-12.414-5.241s-11.042-1.823-12.548-1.823c-.759,0-11.684,11.931-13.744,13.023-1.692-1.584,6.939-11.628,4.168-11.628-2.61,0-9.339,8.46-10.811,12.2a59.937,59.937,0,0,0-5.535,3.136c-.025-3.4,4.341-11.715,4.341-11.715s-15.559,4.557-15.559,7.063,10.289,6.835,5.771,6.835-9.536-6.607-9.536-6.607-8.1,3.873-6.557,8.2-3.462,5.89-5.108,7.384c0,0,0,.007-.007.01-3.812,1.228-8.659,3.7-10.746,5.594-3.512,3.189,6.441,21.948,3.848,24.3s-7.863-18.227-7.863-20.2c0-1.138-1.122-1.232-2.577-.323,4.214-21.165,10.747-39.457,20.921-48.729,4-3.777,8.84-6.047,12.488-8.028l.142-.076c-.752,1.1-1.4,3.059-1.4,6.577,0,8.316,23.575,11.064,20.076,7.888s-7.4-13.014-5.521-13.014,5.018,10.367,10.037,12.531,10.917-3.645,10.917-3.645-15.747-10.765-14.178-12.19,15.182,12.987,18.946,14.354,10.666-5.24,10.666-5.24-25.973-12.645-25.243-14.809,24.114,13.442,27.752,12.417,6.776-7.633,6.776-7.633-26.35-8.088-25.346-10.025,22.084,8.544,25.1,7.975,1.5-8.43,1.5-9.8-16.249-3.361-17.817-4.785,15.936,2.62,17.19,2.62,2.635-1.367,1.381-3.987-2.384-11.278-2.384-11.278c-1.506,0-8.156-4.785-9.285-5.809s-5.395,8.088-7.026,8.088,4.768-8.2,4.768-10.139-4.014-3.645-7.277-3.645-8.281,19.78-9.787,19.78,5.271-20.236,4.267-21.148-3.89-2.278-9.912-1.481-2.635,23.923-4.768,25.859,0-24.493,0-25.176-7.529,1.14-10.165,3.532,1.882,24.72,0,26.43-3.387-21.3-3.387-23.7-2.384-2.62-9.16,5.126a7.479,7.479,0,0,0-1.73,6.77c-10.669,4.275-8.542,19.787-3.916,23.988a10.807,10.807,0,0,0,7.4,2.661c-10.214,5.468-16.464,9.19-23.42,23.65-.006-4.895-.6-15.5-3.513-18.147s3.514-1.215,3.514-3.949-.336-13.214-1.673-14.429-4.852,8.354-7.026,6.379,6.19-7.9,6.19-8.657-4.852-15.037-6.023-15.037-.334,6.228-3.68,7.746,1.84-8.809,1.84-12-3.43-3.873-7.361-7.443a73.277,73.277,0,0,1-8.365-9.872,117.078,117.078,0,0,0,8.532,19.745c4.89,8.592,6.21,40.53,6.345,44.155a.5.5,0,0,0-.156.347c-.287,18.72-.563,35.026-.821,49.248a17.2,17.2,0,0,0-.062,3.4q-.557,3.387-1.063,6.946c-1.134-3.082-1.882-5.368-1.882-5.368s-.646.624-1.562,1.654c-.514-2.748-1.617-4.878-3.476-5.527,0,0-.907.839-2.243,1.989-.591-17.964-1.59-34.029-3.236-43.613a28.118,28.118,0,0,0-1.591-5.8,13.42,13.42,0,0,0,4.947-1.25c7.058-3-1.294-24.7-2.4-20.478s-7.691,11.2-8.543,9.547,6.523-8.151,6.085-13.34-8.041-8.271-8.041-8.271-2,17.716-3.919,16.852,4.141-18.021,3.6-21.821-9.28-7.475-9.28-7.475,1.038,27.375-1.129,27.514.48-26.029-2.039-28.854-9.549-3.2-9.549-3.2,5.077,26.06,2.979,25.878-2.757-22.478-4.6-24.917-7.836,1.721-9,2.214,4.512,15.483,4.014,17.374-5-14.94-5.567-16.042-2.354-1.821-4.009.227-8.492,6.165-8.492,6.165c.684,1.323-.364,8.889-.723,10.251s9.309,1.819,10.049,3.251-9.123-1.226-10.765-.528-1.274,4.842.2,7.708,20.54.133,21.223,1.455-19.562,2.676-19.88,3.887-.171,4.239,3.236,9.24,21.5-6.322,24.107-5.148-20.787,8.842-21.366,9.088,4.379,6.2,7.6,7.651,20.126-10.577,22.43-9.541-16.544,10.666-18.574,11.529-1.143,3.04,8.5,6.194a6.911,6.911,0,0,0,6.525-.922c8.115,7.508,19.661.951,21.894-4.521,1.117,8.331,1.862,20.007,2.346,33.116-2.069-3.214-6.3-6.838-8.339-4.985-2.76,2.506-5.646,13.328-8.783,10.48s7.78-10.252,6.525-14.581-5.5-8.058-7.094-6.607-1.187,16.176-3.194,14.354,2.979-16.492,1.505-17.83-8.951-7.688-11.71-5.182,3.262,16.025,1.673,14.582-5.521-16.556-7.7-18.531-5.615.5-7.7-1.387c0,0-.418,4.2-1.506,5.183s10.54,9.873,9.034,9.873-11.042-8.05-11.042-8.05.752,8.582,2.844,10.48,13.216,3.494,13.216,5.165-14.387-2.127-14.387-2.127,2.844,9.873,7.864,11.088,12.88.3,12.88,1.975-9.87.608-9.87.608,2.341,12.151,8.866,12.151,7.268-1.063,7.268,1.063-5.092-1.519-5.092,2.278,4.732,11.412,7.194,9.178a11.826,11.826,0,0,0,2.75-4.3,343.633,343.633,0,0,1,10.472,49.031h2.023a344.327,344.327,0,0,0-10.872-50.558c2.2,1.234,7.9,4.275,12.514,5.4a28.455,28.455,0,0,0,1.434,11.487c.075,11.983.043,23.611-.027,33.674h2.971c.038-8.6.038-18.354-.036-28.506a9.184,9.184,0,0,0,3.2,2.395,15.327,15.327,0,0,0,1.552.571c-.693,8.787-1.219,17.454-1.61,25.54h2.7c.257-7.826.639-16.279,1.233-25.021a15.2,15.2,0,0,0,1.592.151c-.223,10.206-.414,18.345-.57,24.87h1.974c.1-7.356.211-15.867.325-24.916a17.187,17.187,0,0,0,6.012-1.617c-2.49,7.611-3.812,17.142-4.42,26.533h1.834a129.261,129.261,0,0,1,2.775-21.72,19.58,19.58,0,0,0,1.827,5.634c3.847,8.05,20.242,4.556,20.242,4.556-10.038,0-12.881-15.341-9.87-16.555s1.338,12.758,11.209,14.885,12.882-5.013,12.882-5.013c-7.7-1.367-21.5-12.833-18.9-15.189s15.386,13.67,20.573,13.67,10.875-12.455,10.875-12.455c-6.357,3.341-27.1-5.468-29.036-8.506s20.5,8.05,28.7,6.683,7.7-14.429,7.7-14.429c-2.593,2.354-25.1.152-27.437-1.974s22.251,1.063,26.936-1.063,3.178-13,3.178-13-17.065,3.282-21.414,2.219,17.9-3.038,19.909-7.595-2.951-15.128-2.951-15.128c-2.3,2.088-9.535.359-12.544.05,8.192-3.563,17.76-7.669,21.868-9.225C5555.784,1592.879,5574.408,1592.128,5583.206,1594.517Zm-138.952-10.1a6.183,6.183,0,0,0-1.3.418c2.856-3.712,4.132-8.875,4.9-8.531C5449.152,1576.893,5447.244,1583.819,5444.254,1584.419Zm20.9,40.12c-3.431,2.733-7.606,5.586-8.871,4.437-1.851-1.68,5.892-5.5,8.753-8.454Q5465.1,1622.514,5465.155,1624.539Zm9.557,24q-.164,1.6-.317,3.217c-1.776-.207-4.051-2.894-5.991-5.231q-.014-.87-.027-1.739a4.342,4.342,0,0,0,.455-.085,3.367,3.367,0,0,0,1.431-1.018C5471.835,1645.635,5473.557,1647.254,5474.711,1648.536Zm36.654-112.858a7.072,7.072,0,0,0,.128-1.466c2.331,4.612,6.645,8.418,6.021,8.985C5516.448,1544.165,5510.739,1538.867,5511.365,1535.677Zm-31.842,78.88c.212-22.138.309-40.266.115-44.277,1.931,1.9.72,11.595,3.664,14.268,1.7,1.548,3.6,1.861,4.989,1.08-.627,1.463-1.262,3.008-1.911,4.664-.518,1.477-3.334,9.185-4.417,13.635C5481.089,1607.159,5480.279,1610.737,5479.523,1614.557Zm6.623,31.2c-1.759.684-4.521-4.728-6.84-10.3q.037-3.345.073-6.657.146-.981.3-1.956C5482.738,1634.587,5488.548,1644.826,5486.146,1645.761Zm19.742-18.531c-4.353,0-2.07-12.748-1.6-18.741.975.288,2,.567,2.991.827C5507.25,1615.76,5509.824,1627.229,5505.887,1627.229Zm19.374-21.749c-1.733,2.66-3.033,11.086-5.99,11.724-2.655.574.707-6.642,2.509-10.2C5522.882,1606.518,5524.046,1606.009,5525.261,1605.48Z" transform="translate(-4287.876 1654.131)"/><path class="a" d="M0,0H34L27.485,34H6.75Z" transform="translate(1167.5 3343.5)"/></g><ellipse class="b" cx="345.76" cy="21.105" rx="345.76" ry="21.105" transform="translate(0 495.969) rotate(-0.317)"/><g transform="translate(58 40.196)"><path class="a" d="M6752.375,1869.9h28.49l-15.187,29.078-13.3-1.472Z" transform="translate(-6301.334 -1459.38)"/><path class="c" d="M6745.174,1583.049H6932.3V1172.6H6745.174Z" transform="translate(-6298.372 -1172.529)"/><path class="a" d="M7006.075,1869.9h28.49v27.607h-10.242Z" transform="translate(-6405.7 -1459.38)"/><rect class="d" width="71.636" height="222.383" transform="translate(539.961 30.734)"/><rect class="d" width="71.636" height="222.383" transform="translate(460.777 30.67)"/><rect class="e" width="71.636" height="5.356" transform="translate(539.99 105.031)"/><rect class="e" width="71.636" height="5.356" transform="translate(460.806 105.031)"/><rect class="e" width="71.636" height="5.356" transform="translate(539.99 168.019)"/><rect class="e" width="71.636" height="5.356" transform="translate(460.806 168.019)"/><path class="a" d="M6968.433,1630.7h-70.457v128.674h74.872l-71.224-2.237V1633.055Z" transform="translate(-6361.231 -1360.979)"/><path class="a" d="M6772.506,1630.7h64.572v128.674h-68.1l64.808-2.472-1.707-123.788Z" transform="translate(-6308.163 -1360.979)"/></g><rect class="f" width="10.315" height="10.315" transform="translate(574.973 366.839)"/><rect class="f" width="10.315" height="10.315" transform="translate(513.672 366.839)"/><rect class="f" width="2.647" height="306.734" transform="translate(547.773)"/></g><g transform="translate(6667.2 1165.943)"><path class="g" d="M6961.985,1203.593a.807.807,0,0,1-.756-.588c-5.128-20.846-18.577-26.729-18.661-26.729a.828.828,0,0,1,.673-1.513c.587.252,14.289,6.22,19.583,27.822a.913.913,0,0,1-.588,1.009Z" transform="translate(-6942.083 -1174.697)"/></g><g transform="translate(6661.491 1147.458)"><path class="g" d="M6966.762,1199.377a.842.842,0,0,1-.841-.84c0-30.68-31.6-49.424-31.856-49.593a.793.793,0,0,1,.841-1.344,84.722,84.722,0,0,1,16.307,13.448c7.48,7.985,16.391,21.014,16.391,37.573A.829.829,0,0,1,6966.762,1199.377Z" transform="translate(-6933.671 -1147.458)"/></g><path class="h" d="M6866.492,1319.587a140.578,140.578,0,0,0-17.4,14.877c-8.826,8.826-17.4,83.718-17.4,83.718l17.315,4.708Z" transform="translate(-239.406 -55.32)"/><path class="i" d="M6856.253,1485.173l-42.111,11.684-23.2-83.634,43.456-6.808Z" transform="translate(-226.309 -83.224)"/><path class="j" d="M6860.876,1481.209l-42.027,11.684-23.2-83.718,43.456-6.724Z" transform="translate(-227.822 -81.951)"/><rect class="k" width="43.624" height="86.829" transform="translate(6563.179 1333.637) rotate(-15.486)"/><path class="l" d="M6938.912,1614.265l-105.236,3.11,14.457-111.625,57.83,1.513Z" transform="translate(-240.043 -115.15)"/><path class="m" d="M6890.575,1587.3s-21.517,177.523-26.225,196.351l-.336,12.02-32.445-.841s2.1-3.95,5.716-3.866c3.7.084,13.028-3.951,15.634-6.893s4.791-248.969,4.791-248.969l40.262,1.093Z" transform="translate(-239.366 -124.584)"/><path class="h" d="M6920.089,1309.182l-3.614,12.272-36.228-3.278,8.574-7.565Z" transform="translate(-255.01 -51.976)"/><path class="n" d="M6878.589,1550.651l4.875,28.747s41.186,155.921,37.823,209.884c0,0-3.95,6.3-17.483,9.75-.756.168-1.513,2.69-1.513,2.69l34.967.924-1.682-10.927s3.614-183.911,4.119-205.345c.589-21.433-4.372-49.424-4.372-49.424l-58.67-1.6Z" transform="translate(-253.856 -124.663)"/><path class="o" d="M6843.7,1424.686c1.346-52.618,18.661-104.564,30.849-110.952,0,0,13.953-.5,21.1-.588,10.675-.084,26.982,5.548,35.134,34.883,7.4,26.645,2.942,106.917.672,146.255-30.175-.841-52.2-2.354-81.532-3.194C6849.75,1481.927,6843.279,1441.245,6843.7,1424.686Z" transform="translate(-243.258 -53.249)"/><path class="p" d="M6903.185,1377.315c-.085.756,19.417-61.444,19.417-61.444a67.316,67.316,0,0,1,13.785,7.4c7.817,5.3,17.988,40.514,17.988,40.514s-4.792,82.626-4.959,88.93c-.084,3.362,4.372,54.215,8.489,100.445l-65.394,4.2C6895.031,1493.142,6905.623,1359.411,6903.185,1377.315Z" transform="translate(-258.951 -54.125)"/><path class="q" d="M6869.942,1314.013s-22.526,7.985-29,65.731-9.5,175.926-9.5,175.926l22.526.589s6.809-168.781,7.061-180.3C6861.454,1364.362,6869.942,1314.013,6869.942,1314.013Z" transform="translate(-239.326 -53.528)"/><path class="r" d="M6908.24,1375.165l20.845-65.983,10.759,8.49-14.037,23.535.84,7.481Z" transform="translate(-264.007 -51.976)"/><path class="r" d="M6886.154,1311.288l-11.936,62.284-2.27-33.706,3.194-3.53.84-19.921Z" transform="translate(-252.343 -52.652)"/><path class="s" d="M6892.387,1280.454l2.521,25.637c.5,5.3,4.287,9.078,8.657,8.91,1.092-.083,2.27-.167,3.447-.336,5.883-.924,11.347-5.8,10.086-12.86-1.513-8.994-4.959-23.872-4.959-31.773C6912.307,1257.171,6892.387,1273.9,6892.387,1280.454Z" transform="translate(-258.912 -37.873)"/><path class="t" d="M6912.223,1270.031c.084-12.86-19.837,3.867-19.837,10.423l1.513,14.962a51.694,51.694,0,0,0,10.255-2.774c5.295-2.185,5.631-8.909,8.825-10.759.168-.084.336-.252.5-.337A58.1,58.1,0,0,1,6912.223,1270.031Z" transform="translate(-258.912 -37.873)"/><path class="u" d="M6853.892,1225.2c5.8,3.614,17.063,8.91,21.266,3.53-3.783,6.052-16.223,2.1-22.779-.924Z" transform="translate(-246.054 -24.986)"/><path class="s" d="M6876.407,1247.911s-7.061-5.211-5.884-.672c1.176,4.623,4.792,14.458,8.49,10.591S6876.407,1247.911,6876.407,1247.911Z" transform="translate(-251.843 -31.471)"/><path class="s" d="M6892.873,1216.286c-.924.925-11.515.168-14.961,11.011s.5,35.555,7.229,42.195,14.374,2.438,20.341-8.741,17.483-25.552,9-36.228C6909.937,1218.892,6892.873,1216.286,6892.873,1216.286Z" transform="translate(-253.852 -22.12)"/><path class="u" d="M6882.152,1276.926s3.11,7.229.084,10.255c-3.11,3.11,8.91,4.2,12.861,3.11,4.034-1.093,9.5-1.765,10.759-3.362,2.521-3.363,1.429-21.1,1.429-21.1h0c-2.27,5.883-8.574,16.138-10.843,16.138s-5.127.588-7.4.588C6886.607,1282.558,6882.152,1276.926,6882.152,1276.926Z" transform="translate(-255.486 -38.043)"/><path class="u" d="M6883.212,1213.394c-.924,5.716-6.641,13.533-20.257,4.959s-10.927-19.333-10.927-19.333,6.893,8.91,11.1,7.06c4.2-1.933,1.177-12.524,1.177-12.524s15.3-1.177,18.155-1.177,5.8,8.91,5.8,8.91-1.933-3.95,13.2-5.3,6.3,21.182,7.985,28.914c1.765,7.817-8.573,21.518-8.573,26.057a11.92,11.92,0,0,0,2.521,7.4s-3.279.757-6.136-7.229,2.353-19.752,2.353-25.8c0-7.4-3.445-10-6.556-12.272C6890.778,1211.377,6884.221,1207.679,6883.212,1213.394Z" transform="translate(-245.872 -14.438)"/><path class="s" d="M6920.188,1249.216s-5.548,10.086-1.6,9.33,11.6-5.968,9.918-13.2S6920.188,1249.216,6920.188,1249.216Z" transform="translate(-266.877 -30.675)"/><path class="t" d="M6920.9,1251.1s3.445-3.194,4.539-2.1c2.689,2.606-6.052,10.171-6.052,8.154S6920.9,1251.1,6920.9,1251.1Z" transform="translate(-267.59 -32.561)"/><path class="v" d="M6899.314,1247.424c0,1.513-.925,2.774-2.1,2.774s-2.1-1.261-2.1-2.774.925-2.774,2.1-2.774S6899.314,1245.827,6899.314,1247.424Z" transform="translate(-259.787 -31.236)"/><ellipse class="v" cx="2.101" cy="2.774" rx="2.101" ry="2.774" transform="translate(6623.388 1213.414)"/><g transform="translate(6632.127 1233.493)"><path class="v" d="M6895.7,1278.115a9.445,9.445,0,0,0,3.7-3.614c.336-.588,1.261-.084.84.5a10.541,10.541,0,0,1-4.286,3.614c-2.69,1.177-5.632,1.093-5.548.925a.082.082,0,0,1,.084-.084A10.045,10.045,0,0,0,6895.7,1278.115Z" transform="translate(-6890.4 -1274.239)"/></g><path class="v" d="M6898.052,1234.478l-.588,1.765a4.908,4.908,0,0,1,5.128,1.513C6902.507,1237.756,6900.574,1234.057,6898.052,1234.478Z" transform="translate(-260.544 -27.956)"/><path class="v" d="M6877.523,1239a9.042,9.042,0,0,1,3.7-1.428l-.841-1.345C6880.465,1236.228,6877.523,1237.4,6877.523,1239Z" transform="translate(-254.135 -28.529)"/><path class="k" d="M6874.276,1241.182H6867.8a3.881,3.881,0,0,0-3.783,4.035v4.791a3.881,3.881,0,0,0,3.783,4.035h6.472a3.881,3.881,0,0,0,3.783-4.035v-4.791A3.934,3.934,0,0,0,6874.276,1241.182Zm2.1,8.91a2.141,2.141,0,0,1-2.018,2.185h-6.472a2.14,2.14,0,0,1-2.017-2.185V1245.3a2.14,2.14,0,0,1,2.017-2.185h6.472a2.141,2.141,0,0,1,2.018,2.185Z" transform="translate(-249.796 -30.122)"/><path class="k" d="M6902.588,1241.058h-7.565a4.239,4.239,0,0,0-4.371,4.119v4.959a4.239,4.239,0,0,0,4.371,4.119h7.565a4.239,4.239,0,0,0,4.371-4.119v-4.959A4.239,4.239,0,0,0,6902.588,1241.058Zm2.353,8.994a2.264,2.264,0,0,1-2.353,2.185h-7.565a2.32,2.32,0,0,1-2.353-2.185v-4.959a2.264,2.264,0,0,1,2.353-2.186h7.565a2.32,2.32,0,0,1,2.353,2.186Z" transform="translate(-258.354 -30.082)"/><g transform="translate(6627.731 1211.734)"><path class="v" d="M6884.959,1262.683c0-.084-2.774-7.9.756-20.173.168-.588,1.177-.337,1.009.252,0,.084-3.026,10.843-.925,18.828,2.941-.42,4.034-1.177,4.287-.336C6890.17,1262.094,6888.825,1261.759,6884.959,1262.683Z" transform="translate(-6883.923 -1242.175)"/></g><rect class="k" width="5.212" height="1.765" transform="translate(6627.506 1215.347)"/><path class="u" d="M6888.422,1179.871c4.54.168,9.162,2.017,11.264,5.8,1.933,3.363,1.513,6.472,1.429,8.742l-.5,2.858-1.009-.168a28.328,28.328,0,0,0,0-5.464c-.925-6.136-5.295-8.826-11.179-8.406Z" transform="translate(-257.638 -10.417)"/><path class="s" d="M6811.253,1493.67a21.792,21.792,0,0,0-4.371,2.354c-2.942,1.933-1.681,6.388-1.429,7.313a33.893,33.893,0,0,0,2.354,5.968,11.743,11.743,0,0,0,2.521,3.363c1.6,1.513,10.339-2.437,10.17-3.363-.084-.672-.336-1.261-.84-1.345-.589-.168-6.893.588-6.893.588s6.977-2.521,7.564-4.37c.589-1.765-.42-2.1-1.092-1.933s-8.237,1.513-8.237,1.513,6.809-3.7,7.145-4.875-.588-2.689-3.95-1.261a24.043,24.043,0,0,1-4.624,1.345s3.951-3.11,4.54-4.791C6814.532,1492.494,6811.253,1493.67,6811.253,1493.67Z" transform="translate(-230.817 -111.139)"/><g transform="translate(6656.841 1267.125)"><path class="q" d="M6953.061,1354.142l-1.344-30.344c28.41,14.961,51.609,73.043,52.7,89.938.673,11.18-20.678,39.926-35.219,55.728-2.354-3.7-5.3-10.339-9.162-12.1,6.893-9.582,15.886-23.955,18.661-36.9,2.773-12.776-6.052-26.729-13.869-36.311A48.877,48.877,0,0,1,6953.061,1354.142Z" transform="translate(-6934.821 -1323.798)"/><path class="s" d="M6961.49,1530.249l-7.145,14.374-22.694-.588s20.845-22.023,23.535-24.628C6958.043,1516.8,6966.028,1525.962,6961.49,1530.249Z" transform="translate(-6928.373 -1386.516)"/><path class="r" d="M6955.482,1601.459l-28.663.925V1554.3h28.747Z" transform="translate(-6926.819 -1397.879)"/><path class="q" d="M6963.73,1517.23c3.867,1.681,6.809,8.405,9.162,12.1,2.185-2.437,4.622-5.127,6.976-7.985l-11.263-11.263C6967.008,1512.692,6965.328,1515.045,6963.73,1517.23Z" transform="translate(-6938.683 -1383.668)"/></g><rect class="w" width="115.229" height="168.84" transform="translate(6223.768 1188.475)"/><path class="x" d="M6294.747,1217.8v155.4h106.882V1217.8Zm104.3,152.824H6297.326V1220.311h101.725Z" transform="translate(-66.84 -22.607)"/><g transform="translate(6241.072 1208.155)"><path class="y" d="M6320.391,1255.583l-2.714,8.279h-3.529l8.958-26.262h4.071l8.958,26.262h-3.6l-2.783-8.279Zm8.619-2.647c-2.579-7.94-2.512-6.786-3.936-12.351h-.068c-1.356,5.5-1.968,6.447-3.868,12.351Z" transform="translate(-6314.147 -1237.125)"/><path class="y" d="M6364.416,1237.843a30.6,30.6,0,0,1,6.175-.543c3.393,0,5.564.611,7.193,1.9,3.325,2.443,3.122,8.415-2.239,10.383v.068a6.908,6.908,0,0,1,3.189,11.876c-1.832,1.7-4.818,2.443-9.094,2.443a33.031,33.031,0,0,1-5.293-.339v-25.787Zm3.393,10.722h3.054c3.6,0,5.7-1.9,5.7-4.411,0-3.054-2.307-4.275-5.769-4.275a20.432,20.432,0,0,0-2.985.2Zm0,12.622a16.525,16.525,0,0,0,2.85.136c3.529,0,6.718-1.289,6.718-5.089,0-6.243-8.55-4.886-9.568-5.09Z" transform="translate(-6330.281 -1237.029)"/><path class="y" d="M6425.431,1262.755a16.976,16.976,0,0,1-6.922,1.222c-7.4,0-12.962-4.682-12.962-13.3,0-8.211,5.565-13.776,13.708-13.776a14.1,14.1,0,0,1,6.244,1.154l-.815,2.782c-5.429-2.646-15.54-1.289-15.54,9.772,0,6.447,3.732,10.586,10.111,10.586a13.78,13.78,0,0,0,5.565-1.086Z" transform="translate(-6343.521 -1236.9)"/></g><g transform="translate(6244.059 1249.075)"><path class="y" d="M6322.959,1310.39l-1.9,5.836h-2.511l6.311-18.526h2.918l6.31,18.526h-2.579l-1.967-5.836Zm6.04-1.9c-1.833-5.565-1.766-4.75-2.783-8.754h-.068c-.95,3.936-1.426,4.547-2.782,8.754Z" transform="translate(-6318.548 -1297.361)"/><path class="y" d="M6351.116,1297.807a24.225,24.225,0,0,1,4.343-.407c2.375,0,3.936.407,5.089,1.357,2.308,1.7,2.239,5.972-1.628,7.329v.068a4.84,4.84,0,0,1,2.24,8.347c-2.24,2.036-7.262,1.9-10.112,1.493v-18.187Zm2.375,7.6h2.171c2.511,0,4-1.289,4-3.122,0-2.172-1.628-3.054-4.072-3.054a11.926,11.926,0,0,0-2.1.136Zm0,8.89a14.332,14.332,0,0,0,2.036.136c2.443,0,4.75-.882,4.75-3.6,0-4.411-5.972-3.461-6.786-3.6Z" transform="translate(-6328.993 -1297.264)"/><path class="y" d="M6393.194,1315.455a12.454,12.454,0,0,1-4.886.882c-5.226,0-9.161-3.325-9.161-9.365,0-5.836,3.936-9.772,9.7-9.772a9.841,9.841,0,0,1,4.411.814l-.611,1.968c-3.868-1.832-10.993-.882-10.993,6.854,0,4.547,2.646,7.465,7.125,7.465a9.927,9.927,0,0,0,3.936-.746Z" transform="translate(-6338.024 -1297.2)"/><path class="y" d="M6408.148,1297.81c4.072-.611,9.568-.882,12.622,1.9,3.733,3.393,3.325,10.586-.068,13.844-2.986,2.986-8.347,2.918-12.554,2.443Zm2.375,16.355a12.82,12.82,0,0,0,2.443.136c5.089,0,7.872-2.85,7.872-7.872,0-4.343-2.443-7.125-7.532-7.125a13.1,13.1,0,0,0-2.783.271Z" transform="translate(-6347.344 -1297.267)"/></g><g transform="translate(6249.895 1277.645)"><path class="y" d="M6330.2,1348.422l-1.357,4h-1.7l4.343-12.826h1.968l4.342,12.826h-1.764l-1.357-4Zm4.207-1.289a55.434,55.434,0,0,1-1.9-6.04h-.068c-.678,2.714-.95,3.121-1.9,6.04Z" transform="translate(-6327.148 -1339.396)"/><path class="y" d="M6351.648,1339.771a17.474,17.474,0,0,1,3.054-.271c5.836,0,5.5,4.886,2.443,5.972v.068a3.357,3.357,0,0,1,1.561,5.768c-1.561,1.425-5.021,1.289-6.99,1.018v-12.554Zm1.629,5.293c.338-.068,4.274.543,4.274-2.172,0-1.493-1.154-2.1-2.782-2.1a6.439,6.439,0,0,0-1.493.136v4.14Zm0,6.108a7.8,7.8,0,0,0,1.356.068c1.7,0,3.257-.611,3.257-2.511,0-1.764-1.494-2.443-3.325-2.443h-1.356v4.886Z" transform="translate(-6335.022 -1339.364)"/><path class="y" d="M6381.312,1351.922a8.85,8.85,0,0,1-3.393.611c-8.686,0-8.483-13.233.339-13.233a7.5,7.5,0,0,1,3.054.543l-.408,1.357c-2.714-1.289-7.6-.543-7.6,4.75,0,3.121,1.833,5.157,4.886,5.157a6.44,6.44,0,0,0,2.714-.543Z" transform="translate(-6341.409 -1339.3)"/><path class="y" d="M6394.916,1339.773c2.782-.407,6.582-.611,8.686,1.357,2.579,2.375,2.307,7.261-.068,9.568-2.036,2.036-5.769,2.036-8.687,1.7v-12.622Zm1.627,11.333a12.073,12.073,0,0,0,1.7.068c3.529,0,5.429-1.968,5.429-5.429,0-3.054-1.7-4.954-5.158-4.954a7.254,7.254,0,0,0-1.968.2Z" transform="translate(-6348.905 -1339.366)"/><path class="y" d="M6421.176,1339.7v12.826h-1.628V1339.7Z" transform="translate(-6356.844 -1339.429)"/></g><g transform="translate(6236.458 1302.686)"><path class="y" d="M6309.452,1382.508l-.951,2.782h-1.154l2.986-8.89h1.357l3.054,8.89h-1.221l-.95-2.782Zm2.917-.882c-.881-2.647-.814-2.307-1.357-4.139h0c-.475,1.832-.679,2.171-1.289,4.139Z" transform="translate(-6307.347 -1376.264)"/><path class="y" d="M6324.347,1376.5a8.8,8.8,0,0,1,2.1-.2c4,0,3.8,3.393,1.7,4.14h0a2.338,2.338,0,0,1,1.085,4c-1.085.95-3.46.882-4.818.746V1376.5Zm1.155,3.665c.271-.068,2.986.407,2.986-1.493,0-1.018-.815-1.425-1.968-1.425-.542,0-.815.068-1.018.068Zm0,4.207a3.59,3.59,0,0,0,.95.068c1.154,0,2.307-.407,2.307-1.7,0-1.222-1.018-1.7-2.307-1.7h-.95Z" transform="translate(-6312.811 -1376.232)"/><path class="y" d="M6344.841,1384.954a5.958,5.958,0,0,1-2.375.407c-5.972,0-5.836-9.161.272-9.161a4.084,4.084,0,0,1,2.1.407l-.271.95c-1.9-.882-5.226-.407-5.226,3.257,0,2.171,1.221,3.6,3.393,3.6a5.279,5.279,0,0,0,1.9-.339Z" transform="translate(-6317.222 -1376.2)"/><path class="y" d="M6354.247,1376.516c1.968-.271,4.615-.407,6.04.95,1.764,1.629,1.561,5.022,0,6.65-1.425,1.425-4,1.425-5.972,1.154v-8.754Zm1.155,7.872a5.5,5.5,0,0,0,1.153.068c2.443,0,3.8-1.357,3.8-3.732,0-2.1-1.153-3.393-3.6-3.393a6.426,6.426,0,0,0-1.357.136v6.922Z" transform="translate(-6322.42 -1376.245)"/><path class="y" d="M6372.5,1376.5v8.89h-1.154v-8.89Z" transform="translate(-6327.917 -1376.296)"/><path class="y" d="M6378.152,1382.508l-.95,2.782h-1.154l2.986-8.89h1.357l3.054,8.89h-1.221l-.95-2.782Zm2.918-.882c-.883-2.647-.815-2.307-1.357-4.139h0c-.476,1.832-.679,2.171-1.29,4.139Z" transform="translate(-6329.426 -1376.264)"/><path class="y" d="M6393.048,1376.5a8.789,8.789,0,0,1,2.1-.2c4,0,3.8,3.393,1.7,4.14h0a2.338,2.338,0,0,1,1.086,4c-1.086.95-3.461.882-4.818.746V1376.5Zm1.153,3.665c.271-.068,2.986.407,2.986-1.493,0-1.018-.814-1.425-1.968-1.425-.542,0-.814.068-1.018.068Zm0,4.207a3.6,3.6,0,0,0,.95.068c1.154,0,2.308-.407,2.308-1.7,0-1.222-1.018-1.7-2.308-1.7h-.95Z" transform="translate(-6334.891 -1376.232)"/><path class="y" d="M6413.642,1384.954a5.962,5.962,0,0,1-2.375.407c-5.971,0-5.836-9.161.271-9.161a4.088,4.088,0,0,1,2.1.407l-.271.95c-1.9-.882-5.227-.407-5.227,3.257,0,2.171,1.222,3.6,3.393,3.6a5.282,5.282,0,0,0,1.9-.339Z" transform="translate(-6339.333 -1376.2)"/><path class="y" d="M6423.048,1376.516c1.968-.271,4.614-.407,6.04.95,1.765,1.629,1.56,5.022,0,6.65-1.426,1.425-4,1.425-5.972,1.154v-8.754Zm1.153,7.872a5.516,5.516,0,0,0,1.155.068c2.443,0,3.8-1.357,3.8-3.732,0-2.1-1.154-3.393-3.6-3.393a6.432,6.432,0,0,0-1.357.136v6.922Z" transform="translate(-6344.532 -1376.245)"/><path class="y" d="M6441.2,1376.5v8.89h-1.153v-8.89Z" transform="translate(-6349.995 -1376.296)"/></g><g transform="translate(6252.745 1321.076)"><path class="y" d="M6332.7,1407.336l-.61,1.764h-.747l1.968-5.7h.882l1.968,5.7h-.814l-.611-1.764Zm1.9-.611c-.543-1.7-.543-1.493-.882-2.647h0a19.646,19.646,0,0,1-.814,2.647Z" transform="translate(-6331.348 -1403.332)"/><path class="y" d="M6342.247,1403.436a7.02,7.02,0,0,1,1.357-.136c2.579,0,2.443,2.172,1.086,2.647h0a1.5,1.5,0,0,1,.679,2.579c-.679.611-2.239.611-3.122.475Zm.747,2.375c.136,0,1.9.271,1.9-.95,0-.679-.475-.95-1.222-.95a1.7,1.7,0,0,0-.679.068Zm0,2.714c.136,0,.339.068.611.068.746,0,1.494-.271,1.494-1.086,0-.746-.678-1.086-1.494-1.086h-.611Z" transform="translate(-6334.85 -1403.3)"/><path class="y" d="M6355.5,1408.932a3.631,3.631,0,0,1-1.493.271c-3.868,0-3.732-5.9.136-5.9a2.707,2.707,0,0,1,1.357.271l-.2.611a2.259,2.259,0,0,0-3.393,2.1,2.071,2.071,0,0,0,2.171,2.307,3.292,3.292,0,0,0,1.222-.2Z" transform="translate(-6337.719 -1403.3)"/><path class="y" d="M6361.548,1403.439c1.221-.2,2.917-.272,3.868.611a3.212,3.212,0,0,1,0,4.275c-.882.882-2.579.882-3.868.747Zm.747,5.09c.2,0,.475.068.747.068a2.216,2.216,0,0,0,2.443-2.443,2.009,2.009,0,0,0-2.307-2.172,3.063,3.063,0,0,0-.882.068v4.479Z" transform="translate(-6341.053 -1403.303)"/><path class="y" d="M6373.195,1403.4v5.7h-.746v-5.7Z" transform="translate(-6344.557 -1403.332)"/><path class="y" d="M6376.905,1407.336l-.611,1.764h-.747l1.968-5.7h.881l1.968,5.7h-.814l-.611-1.764Zm1.832-.611c-.542-1.7-.542-1.493-.881-2.647h0a19.8,19.8,0,0,1-.815,2.647Z" transform="translate(-6345.553 -1403.332)"/><path class="y" d="M6386.448,1403.436a7.012,7.012,0,0,1,1.357-.136c2.578,0,2.443,2.172,1.085,2.647h0a1.5,1.5,0,0,1,.679,2.579c-.679.611-2.239.611-3.122.475Zm.747,2.375c.136,0,1.9.271,1.9-.95,0-.679-.475-.95-1.221-.95a1.7,1.7,0,0,0-.678.068Zm0,2.714c.136,0,.339.068.611.068.747,0,1.493-.271,1.493-1.086,0-.746-.678-1.086-1.493-1.086h-.611Z" transform="translate(-6349.056 -1403.3)"/><path class="y" d="M6399.6,1408.932a3.632,3.632,0,0,1-1.493.271c-3.869,0-3.733-5.9.135-5.9a2.712,2.712,0,0,1,1.357.271l-.2.611a2.259,2.259,0,0,0-3.394,2.1,2.071,2.071,0,0,0,2.172,2.307,3.291,3.291,0,0,0,1.222-.2Z" transform="translate(-6351.892 -1403.3)"/><path class="y" d="M6405.647,1403.439c1.222-.2,2.918-.272,3.869.611a3.212,3.212,0,0,1,0,4.275c-.882.882-2.579.882-3.869.747Zm.747,5.09c.2,0,.476.068.746.068a2.217,2.217,0,0,0,2.444-2.443,2.01,2.01,0,0,0-2.307-2.172,3.057,3.057,0,0,0-.882.068v4.479Z" transform="translate(-6355.226 -1403.303)"/><path class="y" d="M6417.393,1403.4v5.7h-.746v-5.7Z" transform="translate(-6358.761 -1403.332)"/></g><path class="z" d="M6690.6,1902.647c0,5.7-3.664,10.247-8.211,10.247s-8.211-4.614-8.211-10.247,3.665-10.247,8.211-10.247S6690.6,1897.015,6690.6,1902.647Z" transform="translate(-188.782 -239.413)"/><rect class="z" width="85.03" height="4.547" transform="translate(6412.102 1650.544)"/><path class="aa" d="M6683.446,1911.715c-3.325,0-5.972-3.6-5.972-8.008s2.714-8.008,5.972-8.008c3.325,0,5.972,3.6,5.972,8.008S6686.771,1911.715,6683.446,1911.715Z" transform="translate(-189.843 -240.473)"/><path class="z" d="M6570.4,1899.247c0,5.7-3.664,10.247-8.211,10.247s-8.21-4.615-8.21-10.247c0-5.7,3.664-10.247,8.21-10.247C6566.733,1888.932,6570.4,1893.546,6570.4,1899.247Z" transform="translate(-150.152 -238.32)"/><path class="aa" d="M6563.246,1904.108c-3.325,0-5.972-3.529-5.972-7.8s2.715-7.8,5.972-7.8c3.325,0,5.972,3.529,5.972,7.8S6566.571,1904.108,6563.246,1904.108Z" transform="translate(-151.212 -238.159)"/><path class="t" d="M6454.2,1885.891c-.407,1.764,4.954,3.868.543,6.583-1.493.882-3.529-.475-9.093,1.968-3.732,1.629-10.519,8.822-14.251,9.636a21.223,21.223,0,0,1-12.826-1.357c3.6-2.172,6.583-1.629,10.451-3.936,3.8-2.307,9.229-21.987,21.1-30.673a21.15,21.15,0,0,0,2.646-2.511,91.385,91.385,0,0,0,12.962,5.9C6458.884,1879.783,6454.337,1885.416,6454.2,1885.891Z" transform="translate(-106.637 -230.799)"/><path class="ab" d="M6450.063,1893.518c1.425-.882,3.664-.543,5.7-.475-.136,1.832,4.886,5.361.543,8.008-4.411,2.714-9.568,16.151-9.568,16.151l-3.19-.611s8.822-15.54,4.479-13.98c-4.275,1.493-12.146,14.726-12.146,14.726l-17.3-5.768,1.561-1.832c3.6-2.172,6.515-1.629,10.247-3.868C6438.322,1908.99,6443.684,1896.165,6450.063,1893.518Z" transform="translate(-106.637 -239.58)"/><path class="s" d="M6451.038,1845.5c4.275.271,4.479.611,8.822,1.154-1.222,8.551-1.765,15.4-.747,17.237.814,1.425,1.7,2.85,2.579,4.207,2.443,3.868,4.683,7.261,3.868,8.89-.476,1.018-5.972-.068-7.939,4.818-2.443,5.972-3.258,17.712-3.258,17.712l-16.693,3.325s-2.579-1.154,1.221-4.886,6.922-4.954,8.144-9.026,2.1-19.273,2.1-32.574C6449.138,1855.069,6451.174,1847.672,6451.038,1845.5Z" transform="translate(-112.499 -224.34)"/><path class="ac" d="M6436.412,1911.984h0a19.876,19.876,0,0,1,8.347-9.5l4,2.714c4.615-5.633,4.547-14.794,7.465-20.562a12.581,12.581,0,0,1,5.293-5.836c2.443,3.868,4.683,7.261,3.868,8.89-1.153,2.239-1.018,22.326-1.018,22.326h-2.782s1.7-16.558-1.085-17.576-4.954,19.816-4.954,19.816l-19,2.307C6436.479,1914.563,6435.6,1914.088,6436.412,1911.984Z" transform="translate(-112.259 -235.042)"/><path class="ad" d="M6687.875,1697.5l2.646-14.251,17.916-9.161-10.111-82.384s28.434,10.994,29.384,24.5c1.425,20.359-11.062,65.419-11.062,65.419Z" transform="translate(-193.185 -142.773)"/><path class="ae" d="M6645.177,1588.9l19,.2a32.282,32.282,0,0,1,30.945,40.106l-10.926,43.906h-70.1l-1.628-50.964A32.343,32.343,0,0,1,6645.177,1588.9Z" transform="translate(-168.946 -141.872)"/><rect class="z" width="8.075" height="116.858" transform="translate(6449.29 1538.234)"/><path class="af" d="M6653.8,1712.1l-17.033,9.161-118.894.407L6581.054,1710Z" transform="translate(-138.55 -180.792)"/><path class="ad" d="M6519.182,1735.919l113.125,3.325,3.529-14.251-120.862-3.393Z" transform="translate(-137.617 -184.52)"/><rect class="ag" width="8.619" height="227.065" transform="translate(6222.225 1456.257)"/><rect class="ag" width="8.619" height="228.829" transform="translate(6302.709 1454.492)"/><rect class="ah" width="8.619" height="228.829" transform="translate(6298.637 1454.492)"/><rect class="ah" width="8.619" height="229.779" transform="translate(6216.525 1453.474)"/><rect class="ag" width="8.211" height="220.822" transform="translate(6549.725 1462.432)"/><g transform="translate(6311.938 1286.849)"><path class="ai" d="M6624.363,1359s-6.447,1.561-9.5,5.9-6.447,21.987-.746,32.573,15.065,13.1,11.4,16.83a4.5,4.5,0,0,1-6.922,0s-.476,7.329,5.021,6.583c0,0-.746,4.072-2.782,4.072,0,0-.408,3.529,3.6,2.375,4-1.086,6.583,1.561,4.818,3.325s19.476,9.3,19.476-5.022-28.094-46.485-30-51.371c-1.832-4.818,2.579-9.976,2.579-9.976Z" transform="translate(-6480.428 -1354.835)"/><path class="ai" d="M6683.282,1400.885c-3.189-7.125-1.493-10.519-10.247-21.309s-5.089-13.979-10.586-19.408c-5.5-5.5-25.041-6.922-29.384-4.886s-6.99,9.908-6.99,9.908l20.155,59.447h25.38Z" transform="translate(-6485.262 -1353.356)"/><path class="aj" d="M6614.838,1455.4s-18.051,12.283-24.77,19.883c-4.886,5.5-24.633,24.905-35.492,42.278-4,6.447,12.487,14.115,12.487,14.115l35.831-33.524Z" transform="translate(-6462.082 -1385.816)"/><path class="ak" d="M6612.774,1592.491c11.6-7.125,10.926-32.031,10.926-32.031,4-18.119-7.058-60.058-2.579-73.9s12.012-31.963,12.012-31.963l49.878-1.7s-3.869,31.691,1.154,36.442c0,0-14.522,69.829-14.522,80.484,0,6.583,4.343,25.313,8.618,36.645C6650.912,1608.914,6636.526,1606.267,6612.774,1592.491Z" transform="translate(-6480.987 -1385.013)"/><path class="al" d="M6468.979,1691.523c5.565-15.133,72.409-31.013,92.156-35.22a28.918,28.918,0,0,1,12.758.679h0a18.768,18.768,0,0,1,8.754,6.447l5.836,7.8-90.731,29.316s-14.183,64.876-32.438,103.964h-15.54C6455.136,1779.946,6465.314,1701.362,6468.979,1691.523Z" transform="translate(-6428.602 -1450.249)"/><path class="am" d="M6514.965,1680.556l70.644-16.151,6.989-1.018a45.386,45.386,0,0,1,29.249,5.7l6.107,3.529s5.769,18.73-4.139,26.262c-3.936,2.986-87.745,7.6-87.745,7.6s-41.192,84.963-56.394,103.489c-5.292-.611-12.283-5.022-17.507-5.361C6461.287,1783.909,6509.875,1681.981,6514.965,1680.556Z" transform="translate(-6432.582 -1452.515)"/><path class="al" d="M6469.015,1707.2l33.795-2.1-2.782,11.469s-16.49,64.536-34.813,103.625h-15.541c5.362-24.5,15.608-103.082,19.205-112.922C6468.947,1707.272,6469.015,1707.272,6469.015,1707.2Z" transform="translate(-6428.57 -1466.066)"/><path class="an" d="M6583.274,1454.8l-9.026,33.727-.339,62.772s-2.986,30.47-9.976,41.056-75.666,27.145-75.666,27.145l-37.12,79.466-32.573-5.972s34.813-61.822,43.5-73.494,91.885-23.955,91.885-35.22-1.561-83.063,2.375-96.024,14.318-33.048,14.318-33.048Z" transform="translate(-6418.575 -1385.624)"/><path class="ao" d="M6650.287,1452.2s-5.9,32.167,0,38.07l-10.79,83.063s11.469,52.593,8.28,55.85c-3.257,3.257-94.464,14.658-94.464,14.658l7.262,68.065-53-5.022s15.2-61.618,26.941-79.737,58.022-28.3,58.022-35.627,10.315-103.828,10.315-103.828l28.434-35.152Z" transform="translate(-6447.178 -1384.788)"/><path class="an" d="M6647.775,1529.161a1.561,1.561,0,1,0,1.561-1.561A1.625,1.625,0,0,0,6647.775,1529.161Z" transform="translate(-6492.236 -1409.02)"/><path class="an" d="M6649.274,1515.761a1.561,1.561,0,1,0,1.561-1.561A1.625,1.625,0,0,0,6649.274,1515.761Z" transform="translate(-6492.718 -1404.714)"/><path class="an" d="M6645.474,1542.061a1.561,1.561,0,1,0,1.562-1.561A1.536,1.536,0,0,0,6645.474,1542.061Z" transform="translate(-6491.496 -1413.166)"/><path class="ap" d="M6658.274,1541.157a1.576,1.576,0,1,0,1.561-1.357A1.459,1.459,0,0,0,6658.274,1541.157Z" transform="translate(-6495.61 -1412.941)"/><path class="aq" d="M6657.547,1512.461c3.664-10.722,11.6-30.2,22.733-27.552,1.833-4.479,8.619-21.784,7.329-32.37l2.646-.339c1.425,11.265-5.5,28.977-7.464,33.659,8.483,5.09,3.393,25.516.271,34.474a1.331,1.331,0,0,1-2.511-.882c2.714-7.8,8.075-28.638.068-31.759-9.365-3.6-17.237,16.015-20.495,25.584a1.353,1.353,0,0,1-2.578-.814Z" transform="translate(-6495.358 -1384.788)"/><path class="ap" d="M6693.489,1496.814l-2.579-.814-3.936,5.429,5.361,2.24Z" transform="translate(-6504.833 -1398.865)"/><path class="ap" d="M6689.774,1549.3c0,.95.543,1.7,1.29,1.7a1.552,1.552,0,0,0,1.29-1.7c0-.95-.543-1.7-1.29-1.7A1.552,1.552,0,0,0,6689.774,1549.3Z" transform="translate(-6505.734 -1415.448)"/><g transform="translate(145.219 67.854)"><path class="aq" d="M6634.2,1489.191a1.686,1.686,0,0,0,1.629-1.561c1.561-15.608,11.129-32.1,11.2-32.234a1.716,1.716,0,0,0-.542-2.307,1.648,1.648,0,0,0-2.239.543c-.407.679-10.044,17.3-11.673,33.659a1.737,1.737,0,0,0,1.493,1.9Z" transform="translate(-6632.566 -1452.852)"/></g><path class="aq" d="M6625.774,1506.115a4.615,4.615,0,1,0,4.615-4.615A4.62,4.62,0,0,0,6625.774,1506.115Z" transform="translate(-6485.165 -1400.632)"/><path class="aq" d="M6623.674,1507.54a6.04,6.04,0,1,0,6.04-6.04A6.053,6.053,0,0,0,6623.674,1507.54Z" transform="translate(-6484.491 -1400.632)"/><path class="ar" d="M6620.975,1507.54a6.04,6.04,0,1,0,6.04-6.04A6.053,6.053,0,0,0,6620.975,1507.54Z" transform="translate(-6483.623 -1400.632)"/><path class="as" d="M6656.579,1452.9l-9.636,34.949-1.968-19.748h4l-1.765-15.2Z" transform="translate(-6491.335 -1385.013)"/><path class="s" d="M6671.054,1564.582c3.868-1.357,16.83,3.257,17.78,3.257l2.851.882c1.153-.136,4.071-.543,7.532-1.222.814,3.8.543,7.736.34,11.6-5.361-.407-9.161-.95-9.5-.95-5.09,0-12.894,3.936-12.894,3.936a34.753,34.753,0,0,1-5.429.814c-1.833,0-3.461-3.664-3.461-3.664-2.918,0-1.629-4-1.629-4s-5.633,6.379-8.483,6.379C6655.242,1581.615,6667.254,1565.939,6671.054,1564.582Z" transform="translate(-6495.428 -1420.825)"/><path class="at" d="M6716.309,1528.6c7.194-1.289,17.644-.339,19.884-3.257,3.6-4.818-21.309-36.374-21.309-36.374-4.342-3.732.2-35.967.2-35.967,21.038,5.09,51.371,80.145,39.97,88.627-7.6,5.633-27.077,7.6-37.731,6.718C6717.531,1544.41,6717.124,1532.4,6716.309,1528.6Z" transform="translate(-6513.2 -1385.045)"/><path class="au" d="M6715.886,1528.566c9.365-1.154,20.63.95,20.969-4.547.136-7.668-17.3-30.2-21.715-35.831-3.393-3.529-.95-29.248-.476-35.288-1.221,6.243-5.5,32.641-.882,36.781l-.135-.136c2.985,3.868,24.905,32.506,21.172,35.7C6732.377,1527.412,6722.672,1527,6715.886,1528.566Z" transform="translate(-6512.776 -1385.013)"/><g transform="translate(131.23 0)"><path class="s" d="M6644.974,1426.147a26.939,26.939,0,0,1,7.262,7.057,18.466,18.466,0,0,1,2.036,4,40.353,40.353,0,0,1,1.967,12.215,4.9,4.9,0,0,0,4.275,4.818,9.6,9.6,0,0,0,8.007-2.443c2.851-2.85,6.99-7.668,6.854-12.147-.068-3.054-22.869-27.552-22.869-27.552Z" transform="translate(-6622.565 -1371.901)"/><path class="as" d="M6676.147,1452.471l6.515-.136,6.854-.136-17.373,19.069,2.714,2.375-27.484,17.169.34-3.189Z" transform="translate(-6623.336 -1384.788)"/><path class="t" d="M6644.974,1426.115l7.6-14.115s2.646,2.918,6.175,6.786c-.881,5.293-2.714,10.858-6.515,14.387A24.806,24.806,0,0,0,6644.974,1426.115Z" transform="translate(-6622.565 -1371.868)"/><path class="s" d="M6623.761,1366.5a14.237,14.237,0,0,0-4.75,8.619c-.881,5.565,2.851,11.74,2.851,16.422s8.686,26.873,19.477,21.648,9.908-22.123,9.908-25.923-5.226-16.9-11.672-19.951C6633.058,1364.122,6623.761,1366.5,6623.761,1366.5Z" transform="translate(-6614.178 -1356.971)"/><path class="t" d="M6621.972,1393a7.554,7.554,0,0,1-.2-1.561c0-4.682-3.665-10.858-2.851-16.422a14.614,14.614,0,0,1,4.75-8.618,33.725,33.725,0,0,1,9.977-.746C6633.3,1373.113,6627.4,1387.364,6621.972,1393Z" transform="translate(-6614.153 -1356.936)"/><path class="av" d="M6624.974,1363.346c-.068-.271,2.036-7.533,10.655-8.958,10.315-1.7,22.462,5.972,26.126,16.355,3.732,10.383,7.057,22.191,17.236,25.177,10.179,2.918,12.012,17.916,8.822,27.348s-12.894,6.99-12.894,6.99,5.972-4.072,4.343-5.7c0,0-4.547,7.736-9.7,5.972s-7.194-4.615-7.194-4.615,6.854-2.918,1.018-7.8c-4.072-3.393-8.075-5.022-12.894-10.79-4.615-5.565,1.764-20.359-2.239-31.013a4.61,4.61,0,0,1-2.511.95c-5.429.543-2.036-5.7-7.193-11.672C6629.792,1360.564,6625.584,1363.346,6624.974,1363.346Z" transform="translate(-6616.137 -1353.277)"/><path class="av" d="M6662.094,1359.674s6.447,25.991,0,32.37c-6.447,6.447-12.622,1.561-12.622-1.425s1.7-14.794-1.154-14.794c-2.782,0-5.021,1.222-6.379-3.257s-4.275-10.586-9.7-10.586-7.261.95-7.261.95,1.153-7.6,10.654-8.958C6645.062,1352.684,6655.58,1350.784,6662.094,1359.674Z" transform="translate(-6616.138 -1352.863)"/><g transform="translate(2.186 23.031)"><path class="t" d="M6647.055,1407.377c.814,1.493,3.325,1.7,5.7.475,2.307-1.222,3.6-3.461,2.782-4.954s-3.325-1.7-5.7-.475S6646.241,1405.884,6647.055,1407.377Z" transform="translate(-6625.339 -1391.565)"/><path class="ac" d="M6635.84,1402.4a67.491,67.491,0,0,1,.679,9.094,5.908,5.908,0,0,0,3.257-.068,4.96,4.96,0,0,1-3.732.475A79.2,79.2,0,0,1,6635.84,1402.4Z" transform="translate(-6621.792 -1391.814)"/><path class="ac" d="M6639.674,1393.806a10.413,10.413,0,0,1,4.14-2.782c2.375-.746,6.311,1.357,6.311,1.357s-4.14-1.357-5.7-.814a9.42,9.42,0,0,0-2.986,1.968Z" transform="translate(-6623.048 -1388.106)"/><path class="ac" d="M6626.253,1396.563a10.539,10.539,0,0,0-4.953-.882c-2.512.271-5.226,3.8-5.226,3.8s3.189-2.918,4.887-2.986a9,9,0,0,1,3.529.611Z" transform="translate(-6615.463 -1389.641)"/><path class="ac" d="M6645.424,1419.8a32.133,32.133,0,0,1-8.55,2.714C6639.86,1424.075,6643.863,1422.447,6645.424,1419.8Z" transform="translate(-6622.148 -1397.406)"/><path class="ac" d="M6642.985,1398.979a1.522,1.522,0,0,0,1.968.882,1.56,1.56,0,0,0,.61-2.036,1.522,1.522,0,0,0-1.968-.882A1.461,1.461,0,0,0,6642.985,1398.979Z" transform="translate(-6624.051 -1390.021)"/><path class="aw" d="M6647.082,1397.877c-5.769-3.8-6.583.611-8.007,1.289,1.221-.272,2.239-2.24,3.664-2.24A20.826,20.826,0,0,1,6647.082,1397.877Z" transform="translate(-6622.855 -1389.87)"/><path class="ac" d="M6624.583,1403.779a1.472,1.472,0,0,0,1.9.882,1.54,1.54,0,0,0,.542-2.036,1.371,1.371,0,1,0-2.443,1.154Z" transform="translate(-6618.137 -1391.564)"/><path class="aw" d="M6629.039,1402.678c-5.429-3.8-6.175.611-7.465,1.357,1.154-.271,2.1-2.24,3.461-2.24A15.857,15.857,0,0,1,6629.039,1402.678Z" transform="translate(-6617.231 -1391.413)"/><path class="ad" d="M6615.174,1398c0,4.072,2.986,7.329,6.651,7.329s6.65-3.257,6.65-7.329v-.271l1.29-.271a7.153,7.153,0,0,0,6.65,5.09c3.936,0,7.125-3.529,7.125-7.872s-3.189-7.872-7.125-7.872-7.125,3.529-7.125,7.872a9.132,9.132,0,0,0,.136,1.357l-1.086.2a6.842,6.842,0,0,0-6.447-5.632A7.119,7.119,0,0,0,6615.174,1398Zm15.744-3.325c0-3.461,2.511-6.243,5.565-6.243s5.565,2.782,5.565,6.243-2.511,6.243-5.565,6.243S6630.917,1398.133,6630.917,1394.672Zm-14.25,3.325c0-3.257,2.307-5.836,5.158-5.836s5.157,2.646,5.157,5.836c0,3.257-2.307,5.836-5.157,5.836S6616.667,1401.187,6616.667,1398Z" transform="translate(-6615.174 -1386.8)"/></g><path class="ai" d="M6674.508,1388.3a39.778,39.778,0,0,0-2.239,13.369c.679,13.1,14.59,6.243,18.458,6.515a3.884,3.884,0,0,1,3.529,5.225c-.679,2.443-2.307,3.189-3.122,4.14a2.519,2.519,0,0,0,.882,4c2.85,1.425,6.379-1.832,7.532,2.036a8.078,8.078,0,0,1-2.1,8.008,8.235,8.235,0,0,0,2.986-8.279c-.678-3.19-2.918-3.054-5.972-2.85-1.9.136-2.579-.814-2.443-1.357.136-1.154,2.714-1.561,3.868-5.225a5.681,5.681,0,0,0-2.579-6.854c-6.379-3.665-20.562,9.568-20.02-9.908A78.489,78.489,0,0,1,6674.508,1388.3Z" transform="translate(-6631.333 -1364.252)"/><path class="av" d="M6627.168,1359a16.271,16.271,0,0,0-10.519,4.479c-4.479,4.479-6.244,19.476-3.122,22.123s-4.818,7.736,1.833,7.736S6633.072,1359.611,6627.168,1359Z" transform="translate(-6611.953 -1354.835)"/><path class="ai" d="M6625.236,1361.2c-8.618,2.172-12.011,10.654-7.735,17.1a4.449,4.449,0,0,0,3.054,2.239v-1.832c-.476.068-1.426-.95-1.7-1.289C6614.583,1371.854,6617.229,1363.847,6625.236,1361.2Z" transform="translate(-6613.143 -1355.542)"/></g></g><g transform="translate(6309.495 1319.448)"><path class="ax" d="M6450.374,1517.461c0-5.022,4.887-9.161,10.926-9.161s10.926,4.072,10.926,9.093-4.887,9.161-10.926,9.161h-.679c-2.578,8.211-5.5,22.462-3.664,29.045a17.077,17.077,0,0,0,6.786,9.7l-.476.814a18.548,18.548,0,0,1-8.482-9.908c-2.579-6.854-1.358-21.716.61-31.081A9.111,9.111,0,0,1,6450.374,1517.461Z" transform="translate(-6426.351 -1435.417)"/><path class="ax" d="M6458.375,1587.168l26.806-.068a3.853,3.853,0,0,1,3.868,3.8v.747l-34.474.136v-.747A3.809,3.809,0,0,1,6458.375,1587.168Z" transform="translate(-6427.701 -1460.742)"/><path class="ay" d="M6507.605,1486.949V1400.9l-89.849,5.157-2.782,77.5Z" transform="translate(-6414.974 -1400.9)"/><path class="az" d="M6417.756,1408.5l-2.782,77.5,92.631,3.393-76.344-17.78Z" transform="translate(-6414.974 -1403.343)"/></g><rect class="ak" width="427.392" height="4.547" transform="translate(6197.048 1450.217)"/><path class="s" d="M6554.38,1545l29.52,8.89,9.7,2.1s5.022,4.275,6.718,8.279c1.833,4.208,3.189,12.351,3.189,12.351-.542-.271-6.311-8.279-6.65-8.89,1.628,3.461,1.968,9.908-2.375,3.665.882.882,1.765,2.036.34,2.239-2.307.339-7.194-2.172-9.976-3.529s-5.361-7.4-5.361-7.4c-8.144.882-11.265.339-18.526-.068C6543.454,1561.626,6554.38,1545,6554.38,1545Z" transform="translate(-149.2 -127.764)"/><path class="ao" d="M6581.749,1551.108l-7.4,16.355s-20.495-2.375-23.819-5.7c-4-4-4.954-7.668,2.714-16.762Z" transform="translate(-148.067 -127.764)"/><g transform="translate(6467.803 1264.874)"><path class="ba" d="M6699.3,1366.1a.248.248,0,0,0,.2-.068.5.5,0,0,0,.271-.679c-9.365-20.155-22.666-31.284-32.234-37.052-10.315-6.243-18.594-7.8-18.662-7.8a.519.519,0,0,0-.2,1.018c.068,0,8.212,1.493,18.323,7.736,9.365,5.7,22.53,16.694,31.759,36.577C6698.825,1366.029,6699.1,1366.1,6699.3,1366.1Z" transform="translate(-6648.255 -1320.481)"/></g><rect class="bb" width="85.913" height="3.189" transform="translate(6390.705 1447.036)"/><rect class="ag" width="8.211" height="222.111" transform="translate(6602.521 1461.143)"/><rect class="bc" width="427.392" height="4.547" transform="translate(6197.048 1450.217)"/><rect class="ag" width="126.019" height="4.547" transform="translate(6197.048 1450.217)"/><rect class="ag" width="402.759" height="16.558" transform="translate(6213.471 1454.764)"/><rect class="ah" width="88.627" height="16.558" transform="translate(6213.471 1454.764)"/></g></svg>