<svg xmlns="http://www.w3.org/2000/svg" width="200.391" height="200.391" viewBox="0 0 200.391 200.391"><defs><style>.a{fill:#26c994;}.b{fill:none;}.c{fill:#3f536e;}</style></defs><g transform="translate(-1566.411 -3127.25)"><g transform="translate(1599.296 3143.483)"><path class="a" d="M1760.4,3203.02c9.478,21.555,7,42.99-1.64,55.948-8.6,12.957-23.355,17.4-40.711,31.552s-37.311,38.071-53.548,36.911c-16.2-1.16-28.673-27.394-31.833-52.548-3.2-25.155,2.919-49.189,17-71.823,14.117-22.595,36.232-43.79,57.987-43.51C1729.447,3159.791,1750.922,3181.465,1760.4,3203.02Z" transform="translate(-1631.839 -3159.548)"/></g><rect class="b" width="200.391" height="200.391" transform="translate(1566.411 3127.25)"/><g transform="translate(1585.412 3147.75)"><g transform="translate(8.495 8.495)"><path class="c" d="M84.628,104.356H124.44V99.239a210.3,210.3,0,0,0-32.885-4.215A4.663,4.663,0,0,1,86.97,90.34v-53.9H84.628a2.342,2.342,0,0,0-2.342,2.342v63.232A2.342,2.342,0,0,0,84.628,104.356Z" transform="translate(-61.209 -27.108)"/><path class="c" d="M43.6,91.429H36.571V157H148.983V91.429h-7.026v51.487a7.026,7.026,0,0,1-7.026,7.026H50.623a7.026,7.026,0,0,1-7.026-7.026Z" transform="translate(-27.203 -68.01)"/><path class="c" d="M4.684,61.883a2.342,2.342,0,0,1,2.342-2.342h9.368V54.857H4.684A4.684,4.684,0,0,0,0,59.541V129.8H4.684Z" transform="translate(0 -40.806)"/><path class="c" d="M118.775,6.993c0,.044-.023.082-.026.126l.026,56.112a208.913,208.913,0,0,1,32.787,4.108V4.215A210.441,210.441,0,0,0,118.747,0V6.867A1.18,1.18,0,0,1,118.775,6.993Z" transform="translate(-88.33)"/><path class="c" d="M307.3,102.007V38.776a2.342,2.342,0,0,0-2.342-2.342h-2.342v53.9a4.663,4.663,0,0,1-4.586,4.684,210.15,210.15,0,0,0-32.885,4.215v5.127h39.812a2.342,2.342,0,0,0,2.342-2.351Z" transform="translate(-197.228 -27.102)"/><path class="c" d="M155.429,496.056a2.342,2.342,0,0,0,2.342,2.342h46.838a2.342,2.342,0,0,0,2.342-2.342v-2.342H155.429Z" transform="translate(-115.616 -367.251)"/><path class="c" d="M459.709,54.857H448v4.684h9.367a2.342,2.342,0,0,1,2.342,2.342V129.8h4.684V59.541A4.684,4.684,0,0,0,459.709,54.857Z" transform="translate(-333.246 -40.806)"/><path class="c" d="M297.93,0a210.2,210.2,0,0,0-32.787,4.215V67.339a209.011,209.011,0,0,1,32.77-4.108Z" transform="translate(-197.228)"/><path class="c" d="M0,375.082a4.684,4.684,0,0,0,4.684,4.684H126.463a4.684,4.684,0,0,0,4.684-4.684v-9.368H0ZM60.89,370.4h9.368a2.342,2.342,0,1,1,0,4.684H60.89a2.342,2.342,0,1,1,0-4.684Z" transform="translate(0 -272.038)"/><path class="c" d="M204.847,438.857H173.555a22.318,22.318,0,0,1-7.356,9.368h46A22.324,22.324,0,0,1,204.847,438.857Z" transform="translate(-123.628 -326.445)"/></g></g></g></svg>