<svg xmlns="http://www.w3.org/2000/svg" width="200" height="200" viewBox="0 0 200 200"><defs><style>.a{fill:none;}.b{fill:#fdc16c;}.c{fill:#3f536e;}</style></defs><g transform="translate(-2116.883 -2902.402)"><rect class="a" width="200" height="200" transform="translate(2116.883 2902.402)"/><g transform="translate(2143.888 2953.448)"><g transform="translate(0 5.133)"><path class="b" d="M2285.625,2982.919c12.721,4.971,20.961,21.582,25.061,39.81,4.063,18.228,3.95,38.074-6.227,47.622s-30.417,8.838-48.377,16.334c-17.923,7.458-33.568,23.16-46.745,22.292-13.138-.829-23.846-18.228-30.8-35.548-6.911-17.321-10.1-34.563-9.151-52.909.949-18.386,6.038-37.877,18.227-42.927,12.227-5.049,31.594,4.3,49.858,5.682C2255.741,2984.615,2272.9,2977.947,2285.625,2982.919Z" transform="translate(-2168.212 -2975.172)"/></g><g transform="translate(-15 -40.878)"><path class="c" d="M1087.718,3272.953c-26.7,4.244-25.707,20.414-27.249,28.12-3.141,19.312,16.751,40.888,16.751,40.888l-1.131,22.454h32.393l2.472-10.326s1.4,2.36,9.775,3.082c8.376.7,7.326-9.507,7.326-9.507s5.584-2.442,5.584-4.3-3.283-4.243-3.283-4.243,3.544.67,4.794-.849c1.281-1.481-1.541-6.864-1.541-6.864s4.363-.112,6.924-2.933c2.583-2.822-8.086-11.227-8.086-16.632,6.046-29.608-18-43.158-44.729-38.885Zm0,0" transform="translate(-1060.133 -3197.983)"/><path class="c" d="M1326.54,3312.779c-1.571-7.736-.558-23.876-27.278-28.149-26.7-4.244-50.752,9.306-44.7,38.915,0,5.405-10.706,13.781-8.115,16.6,2.561,2.851,6.946,2.941,6.946,2.941s-2.844,5.4-1.563,6.886,4.824.849,4.824.849-3.283,2.383-3.283,4.243c0,1.832,5.554,4.3,5.554,4.3s-1.02,10.207,7.325,9.477c8.376-.692,9.775-3.053,9.775-3.053l2.5,10.326h32.363l-1.132-22.454c.03,0,19.893-21.575,16.781-40.888Zm0,0" transform="translate(-1152.438 -3203.785)"/><path class="c" d="M1202.625,3187.806l-9.8,17.094,4.221-.663c.291-.03,28.44-4.393,47.752-10.125,25.3-7.5,39.838-19.975,39.838-34.2,0-19.335-22.886-35.1-51.035-35.1-28.127,0-51.042,15.761-51.042,35.1,0,10.967,7.474,21.263,20.071,27.9Zm30.971-58.867c25.849,0,46.911,13.877,46.911,30.971,0,17.421-25.8,26.966-36.912,30.249-14.57,4.333-34.343,7.884-42.92,9.336l7.706-13.468-2.01-.961c-12.3-5.844-19.655-15.262-19.655-25.156-.03-17.072,21.024-30.971,46.881-30.971Zm0,0" transform="translate(-1120.916 -3124.814)"/></g></g></g></svg>