<svg xmlns="http://www.w3.org/2000/svg" width="200.297" height="200.297" viewBox="0 0 200.297 200.297"><defs><style>.a{fill:#11d2ff;}.b{fill:#3f536e;}.c{fill:none;}</style></defs><g transform="translate(-338.586 -3123.846)"><g transform="translate(368.283 3135.006)"><g transform="translate(0 0)"><path class="a" d="M512.378,3153c13.122,10.465,15.536,34.373,15.577,58.321s-2.254,47.977-15.415,67.538c-13.121,19.6-37.15,34.775-58.723,32.36s-40.732-22.419-52.605-42.02-16.462-38.759-12.92-54.376c3.582-15.577,15.254-27.652,27.127-38.116s23.948-19.319,41.9-25.276C475.308,3145.514,499.216,3142.535,512.378,3153Z" transform="matrix(0.035, -0.999, 0.999, 0.035, -3172.353, 439.849)"/></g><path class="b" d="M532.887,3233.825a54.859,54.859,0,0,0,1.1-11.046h-5.439l-.783-3s-2.866-1.662-4.279-2.487a14.908,14.908,0,0,0-.291-2.422c1.117-.966,3.394-2.909,3.394-2.909v-3.9l-5.59-6.5h-3.9s-1.856,1.581-2.785,2.385a20.457,20.457,0,0,0-3.162-1.2c-.1-1.1-.275-3.286-.275-3.286l-2.757-2.763-8.537.7-2.763,2.763s.232,2.887.356,4.338a16.986,16.986,0,0,0-2.358,1.6c-1.2-.544-3.6-1.64-3.6-1.64l-3.772.987-3.583,7.781-.13.523,1.117,3.248s2.785,1.285,4.2,1.917a12.145,12.145,0,0,0,.421,2.676c-.383.34-.885.761-1.393,1.182h-5.25l-.356-1.371s-1.559-.885-2.32-1.327a10.053,10.053,0,0,0-.167-1.328c.61-.529,1.835-1.582,1.835-1.582v-2.11l-3.016-3.518H476.67s-1.014.863-1.5,1.284a10.612,10.612,0,0,0-1.727-.631c-.043-.61-.146-1.792-.146-1.792l-1.5-1.516-4.635.378-1.5,1.516s.124,1.565.189,2.342a7.936,7.936,0,0,0-1.268.885c-.653-.3-1.959-.907-1.959-.907l-2.045.55-1.937,4.215-.065.3.588,1.748s1.522.7,2.277,1.052a8.428,8.428,0,0,0,.232,1.436c-.124.1-.275.253-.442.377H443.024l75.4-51.053c-16.61-24.661-46.861-20.279-69.245.717-24.979,23.42-12.459,39.673-8.645,48.863.275.566.615,1.117.928,1.64-1.77,23.717,21.461,49.031,21.461,49.031l-1.436,28.438h41.044l3.119-13.069s1.791,2.995,12.4,3.88c10.6.907,9.292-12.039,9.292-12.039s7.063-3.119,7.063-5.456c0-2.32-4.176-5.357-4.176-5.357s4.49.825,6.114-1.074-1.98-8.726-1.98-8.726,5.542-.124,8.812-3.729c3.243-3.567-10.285-14.187-10.285-21.018Zm-35.712-15.811a8.612,8.612,0,1,1,15.789,4.765H498.632a8.428,8.428,0,0,1-1.457-4.765Zm-31.3,2.445a4.668,4.668,0,1,1,9.336,0,4.605,4.605,0,0,1-.7,2.32h-7.949a4.6,4.6,0,0,1-.691-2.32Zm0,0" transform="translate(-410.458 -3150.464)"/><path class="b" d="M543.824,3238.171l1.009-.275,1.16-1.98-.275-1.031s-.755-.443-1.138-.658a4.866,4.866,0,0,0-.081-.653c.3-.27.907-.8.907-.8v-1.052l-1.5-1.754h-1.053s-.507.426-.756.636a4,4,0,0,0-.847-.3c-.043-.3-.081-.906-.081-.906l-.74-.739-2.3.188-.755.739s.06.783.1,1.182a3.229,3.229,0,0,0-.632.421c-.34-.146-.993-.443-.993-.443l-1.009.275-.972,2.1-.022.13.3.885s.756.334,1.139.507a4.013,4.013,0,0,0,.1.713c-.27.253-.863.74-.863.74v1.052l1.5,1.775s.864.1.923.081a.523.523,0,0,1,.13-.081s.545-.464.82-.7a4.465,4.465,0,0,0,.718.253c.043.313.086.923.086.923l.756.761,2.3-.21.739-.761s-.086-.8-.108-1.2a2.749,2.749,0,0,0,.529-.34c.3.167.906.507.906.507Zm-4.026-1.436a2.328,2.328,0,1,1,2.315-2.314,2.322,2.322,0,0,1-2.315,2.314Zm0,0" transform="translate(-460.139 -3187.166)"/><path class="b" d="M585.945,3205.142a6.813,6.813,0,0,0-1.327-.507c-.043-.464-.124-1.414-.124-1.414l-1.16-1.155-3.627.291-1.182,1.16s.108,1.247.146,1.856a6.6,6.6,0,0,0-1.009.675c-.507-.232-1.516-.7-1.516-.7l-1.6.421-1.517,3.308-.064.232.485,1.37s1.177.551,1.77.826a4.845,4.845,0,0,0,.189,1.116c-.464.4-1.349,1.155-1.349,1.155v1.646l2.342,2.784a14.105,14.105,0,0,0,1.43.124c.086-.043.232-.124.232-.124s.842-.718,1.268-1.073c.378.145.756.27,1.133.377.043.507.151,1.473.151,1.473l1.16,1.182,3.621-.334,1.16-1.182s-.1-1.268-.167-1.878a7.453,7.453,0,0,0,.864-.567l1.414.82,1.6-.42,1.813-3.141-.4-1.6s-1.225-.7-1.835-1.052a4.13,4.13,0,0,0-.129-1.037c.485-.4,1.457-1.241,1.457-1.241v-1.645l-2.385-2.763h-1.662s-.783.675-1.182,1.014Zm-3.626,9.633a3.656,3.656,0,1,1,3.669-3.669,3.669,3.669,0,0,1-3.669,3.669Zm0,0" transform="translate(-479.602 -3173.931)"/></g><rect class="c" width="200.297" height="200.297" transform="translate(338.586 3123.846)"/></g></svg>