<svg xmlns="http://www.w3.org/2000/svg" width="215.041" height="202.21" viewBox="0 0 215.041 202.21"><defs><style>.a{fill:none;}.b{fill:#db74f5;}.c{fill:#3f536e;}</style></defs><g transform="translate(-1020.632 -3109.184)"><rect class="a" width="200.743" height="200.743" transform="translate(1034.303 3109.586)"/><path class="b" d="M1233.421,3235.136c10.86,12.839,6.258,38.748-2.623,58.075-8.836,19.328-22.043,32.029-39.76,43.855s-40.036,22.779-62.355,18.039c-22.365-4.694-44.776-25.034-53.98-52.185-9.158-27.1-5.108-60.974,12.977-75.47s50.252-9.572,79.428-7.225C1196.33,3222.573,1222.56,3222.343,1233.421,3235.136Z" transform="matrix(0.883, 0.469, -0.469, 0.883, 1651.558, -234.016)"/><g transform="translate(1014.291 3128.033)"><path class="c" d="M172.427,21.979,122.329,4.3a5.683,5.683,0,0,0-1.9-.327h0a5.677,5.677,0,0,0-1.9.326L68.418,21.98a5.724,5.724,0,0,0-3.806,5.385V62.731c0,22.4,1.569,39.022,9.377,52.619,7.4,12.881,20.106,23.022,43.866,35a5.7,5.7,0,0,0,5.139,0c23.758-11.979,36.467-22.119,43.864-35,7.809-13.6,9.377-30.214,9.377-52.619V27.365A5.727,5.727,0,0,0,172.427,21.979Zm1.046,40.752c0,45.768-6.787,62.5-51.723,85.152a2.94,2.94,0,0,1-2.654,0C74.162,125.227,67.375,108.5,67.375,62.731V27.365a2.952,2.952,0,0,1,1.966-2.781L119.443,6.9a2.939,2.939,0,0,1,1.963,0l50.1,17.683a2.952,2.952,0,0,1,1.966,2.781Z" transform="translate(0)"/><path class="c" d="M233.775,143.559a15.553,15.553,0,0,0-31.106,0v3.111h31.106Z" transform="translate(-97.798 -87.865)"/><path class="c" d="M142.189,32.588,95.336,49.126V82.187c0,22.208,1.318,37.4,8.056,49.333,6.277,11.116,17.208,19.869,38.8,31,21.589-11.13,32.52-19.883,38.8-31,6.738-11.933,8.056-27.125,8.056-49.333V49.126ZM170.184,116.4a6.229,6.229,0,0,1-6.221,6.221H120.415a6.229,6.229,0,0,1-6.221-6.221V85.3a6.229,6.229,0,0,1,6.221-6.221V75.966a21.774,21.774,0,1,1,43.548,0v3.111a6.229,6.229,0,0,1,6.221,6.221Z" transform="translate(-21.764 -20.273)"/><path class="c" d="M181.336,213.339v31.105h43.548V213.339Zm23.459,15.048v7.2a2.351,2.351,0,1,1-4.7,0v-7.2a5.13,5.13,0,1,1,4.7,0Z" transform="translate(-82.686 -148.314)"/></g></g></svg>