<svg xmlns="http://www.w3.org/2000/svg" width="14" height="14" viewBox="0 0 14 14">
    <path fill="#17B2FF" fill-rule="evenodd" d="M12.523 2.225H8.888c-.11-.678-.718-1.198-1.447-1.198H3.16c-.809 0-1.466.637-1.466 1.421v.343h-.23C.659 2.791 0 3.43 0 4.213v8.38c0 .225.187.407.419.407h11.456a.412.412 0 0 0 .419-.406v-1.359h1.276a.413.413 0 0 0 .419-.406V3.647c0-.784-.658-1.422-1.466-1.422zM7.193 3.99c-.11-.679-.717-1.199-1.447-1.199H2.532v-.343a.62.62 0 0 1 .629-.609h4.28a.62.62 0 0 1 .628.61v.182c0 .224.187.406.419.406h4.035a.62.62 0 0 1 .628.61v6.776h-.857V5.412c0-.784-.658-1.422-1.466-1.422H7.193zm4.263 8.198H.838V4.213a.62.62 0 0 1 .628-.61h4.28a.62.62 0 0 1 .628.61v.183c0 .224.187.406.419.406h4.035a.62.62 0 0 1 .628.61v6.776zM6.146 5.5c-.836 0-1.623.316-2.215.89a2.974 2.974 0 0 0 0 4.298c.592.574 1.38.89 2.216.89.837 0 1.624-.316 2.215-.89a2.978 2.978 0 0 0 0-4.298 3.162 3.162 0 0 0-2.215-.89zm1.624 4.614c-.434.42-1.01.652-1.623.652s-1.19-.232-1.623-.652a2.179 2.179 0 0 1 0-3.15 2.317 2.317 0 0 1 1.623-.651c.613 0 1.19.231 1.623.652.895.868.895 2.28 0 3.149zm-.62-1.98h-.584v-.568a.413.413 0 0 0-.42-.406.413.413 0 0 0-.418.406v.567h-.585a.413.413 0 0 0-.418.406c0 .225.187.407.418.407h.585v.567c0 .224.188.406.419.406a.413.413 0 0 0 .419-.406v-.567h.584a.413.413 0 0 0 .419-.407.413.413 0 0 0-.419-.406z"/>
</svg>
