<svg xmlns="http://www.w3.org/2000/svg" xmlns:xlink="http://www.w3.org/1999/xlink" width="103" height="40" viewBox="0 0 103 40"><defs><style>.a{fill:url(#a);}</style><linearGradient id="a" x1="1.131" y1="-0.392" x2="0.101" y2="1" gradientUnits="objectBoundingBox"><stop offset="0" stop-color="#a33bbd"/><stop offset="1" stop-color="#2e55e3"/></linearGradient></defs><path class="a" d="M88.107,40a6.839,6.839,0,0,1-3.973-1.332l-.1-.083,1.576-3,.155.127a4.118,4.118,0,0,0,2.068.905c1.357,0,1.994-.945,2.694-2.688l1.4-3.509L84.9,15.408H78.332V30.493H74.69V5.936A5.73,5.73,0,0,1,80.461,0,7.7,7.7,0,0,1,84.37,1.081l.131.072L83.138,4.17l-.158-.1a4.6,4.6,0,0,0-2.045-.681,2.459,2.459,0,0,0-2.6,2.745v5.889h9.091l.042.1L93.7,26.1l5.351-14.076H103l-.088.22-.266.665c-5.768,14.44-9.082,22.729-9.333,23.34A5.52,5.52,0,0,1,88.107,40ZM62.744,31a9.517,9.517,0,0,1-9.537-9.7,9.539,9.539,0,1,1,19.075,0A9.517,9.517,0,0,1,62.744,31Zm0-16c-3.432,0-5.923,2.65-5.923,6.3s2.491,6.3,5.923,6.3,5.923-2.65,5.923-6.3S66.175,15,62.744,15ZM33.953,30.8c-5.079,0-9.057-4.251-9.057-9.678s3.978-9.677,9.057-9.677a7.745,7.745,0,0,1,5.755,2.414V.4h3.66V30.33H39.984V28.052A7.57,7.57,0,0,1,33.953,30.8ZM34.367,15c-3.393,0-5.855,2.65-5.855,6.3,0,3.709,2.408,6.3,5.855,6.3a6.331,6.331,0,0,0,5.187-3.015v-6.57A6.329,6.329,0,0,0,34.367,15ZM14.007,30.8a9.322,9.322,0,0,1-3.931-.864A9.842,9.842,0,0,1,6.74,27.407L1.972,30.524,0,28.568l5.162-3.578a8.975,8.975,0,0,1,3.1-11.827A9.078,9.078,0,0,1,13.275,11.6a8.445,8.445,0,0,1,1.9.216,10.292,10.292,0,0,1,6.157,4.513,10.355,10.355,0,0,1,.571.917l.071.13L9.7,25.519a5.53,5.53,0,0,0,4.27,1.858,6.529,6.529,0,0,0,3.621-1.093A6.921,6.921,0,0,0,20.6,21.15l.005-.194,3.29.709-.01.139a9.733,9.733,0,0,1-.683,2.661A9.953,9.953,0,0,1,14.007,30.8ZM13.332,15A5.523,5.523,0,0,0,10.2,16.01,5.569,5.569,0,0,0,8.114,23l2.592-1.755.182-.128,6.38-4.313A5.181,5.181,0,0,0,13.332,15ZM50.4,30.4H46.782V12H50.4V30.4ZM48.589,9.2A2.2,2.2,0,1,1,50.8,7,2.207,2.207,0,0,1,48.589,9.2Z" transform="translate(0)"/></svg>